<svg xmlns="http://www.w3.org/2000/svg" width="13.334" height="13.335" viewBox="0 0 13.334 13.335" fill="none">
  <path d="M 12.267 0.001 L 1.142 0.001 C 0.998 -0.006 0.855 0.016 0.72 0.065 C 0.585 0.114 0.461 0.188 0.355 0.285 C 0.249 0.382 0.163 0.499 0.102 0.629 C 0.041 0.759 0.006 0.899 0 1.043 L 0 12.193 C 0.008 12.493 0.131 12.779 0.344 12.991 C 0.556 13.203 0.842 13.326 1.142 13.335 L 12.267 13.335 C 12.558 13.322 12.833 13.195 13.033 12.981 C 13.232 12.768 13.34 12.485 13.333 12.193 L 13.333 1.043 C 13.336 0.903 13.31 0.765 13.256 0.636 C 13.203 0.506 13.124 0.39 13.025 0.292 C 12.925 0.194 12.806 0.118 12.676 0.068 C 12.545 0.018 12.406 -0.004 12.267 0.001 Z M 4.167 11.118 L 2.225 11.118 L 2.225 5.176 L 4.167 5.176 L 4.167 11.118 Z M 3.242 4.276 C 3.106 4.281 2.971 4.258 2.845 4.208 C 2.719 4.158 2.605 4.082 2.509 3.986 C 2.414 3.89 2.339 3.775 2.29 3.648 C 2.241 3.522 2.219 3.387 2.225 3.251 C 2.219 3.114 2.242 2.978 2.292 2.85 C 2.342 2.722 2.418 2.607 2.515 2.51 C 2.612 2.414 2.729 2.338 2.857 2.29 C 2.985 2.241 3.121 2.219 3.258 2.226 C 3.394 2.221 3.529 2.245 3.655 2.295 C 3.781 2.345 3.895 2.42 3.991 2.516 C 4.086 2.613 4.161 2.728 4.21 2.854 C 4.259 2.981 4.281 3.116 4.275 3.251 C 4.281 3.388 4.258 3.525 4.208 3.652 C 4.158 3.78 4.082 3.896 3.985 3.992 C 3.888 4.089 3.771 4.164 3.643 4.213 C 3.515 4.262 3.379 4.283 3.242 4.276 Z M 11.117 11.118 L 9.167 11.118 L 9.167 7.868 C 9.167 7.093 8.892 6.56 8.2 6.56 C 7.985 6.561 7.776 6.63 7.602 6.755 C 7.427 6.88 7.295 7.057 7.225 7.26 C 7.171 7.412 7.148 7.573 7.158 7.735 L 7.158 11.118 L 5.242 11.118 L 5.242 5.176 L 7.158 5.176 L 7.158 6.01 C 7.329 5.696 7.582 5.437 7.891 5.259 C 8.2 5.081 8.552 4.992 8.908 5.001 C 10.167 5.001 11.117 5.835 11.117 7.61 L 11.117 11.118 Z" fill="currentColor" fill-rule="nonzero"></path>
</svg>